<svg xmlns="http://www.w3.org/2000/svg" xmlns:xlink="http://www.w3.org/1999/xlink" width="1080" zoomAndPan="magnify" viewBox="0 0 810 1439.999935" height="1920" preserveAspectRatio="xMidYMid meet" version="1.0"><defs><filter x="0%" y="0%" width="100%" height="100%" id="4fce8e182c"><feColorMatrix values="0 0 0 0 1 0 0 0 0 1 0 0 0 0 1 0 0 0 1 0" color-interpolation-filters="sRGB"/></filter><mask id="70b425ebe4"><g filter="url(#4fce8e182c)"><rect x="-81" width="972" fill="#000000" y="-143.999994" height="1727.999922" fill-opacity="0.6392"/></g></mask><clipPath id="dc9eb397e8"><path d="M 2.5625 11 L 810 11 L 810 785 L 2.5625 785 Z M 2.5625 11 " clip-rule="nonzero"/></clipPath><mask id="bc482f8e59"><g filter="url(#4fce8e182c)"><rect x="-178.2" width="1166.4" fill="#000000" y="-971.799986" height="2073.599906" fill-opacity="0.6471"/></g></mask><clipPath id="21b6578691"><path d="M 0.5625 2 L 808 2 L 808 774 L 0.5625 774 Z M 0.5625 2 " clip-rule="nonzero"/></clipPath><clipPath id="1338cbc094"><rect x="0" width="808" y="0" height="774"/></clipPath><clipPath id="2967a631e7"><path d="M 119 126 L 810 126 L 810 700 L 119 700 Z M 119 126 " clip-rule="nonzero"/></clipPath><clipPath id="84fbb07b70"><path d="M 220 2.195312 L 667 2.195312 L 667 175 L 220 175 Z M 220 2.195312 " clip-rule="nonzero"/></clipPath><mask id="f5fff2ad1b"><g filter="url(#4fce8e182c)"><rect x="-178.2" width="1166.4" fill="#000000" y="-971.799986" height="2073.599906" fill-opacity="0.8"/></g></mask><clipPath id="57ca4f9940"><path d="M 1 0.195312 L 446 0.195312 L 446 171 L 1 171 Z M 1 0.195312 " clip-rule="nonzero"/></clipPath><clipPath id="51d7395f00"><rect x="0" width="447" y="0" height="173"/></clipPath><clipPath id="f33475476a"><rect x="0" width="810" y="0" height="785"/></clipPath><mask id="dc07a2f15f"><g filter="url(#4fce8e182c)"><rect x="-81" width="972" fill="#000000" y="-143.999994" height="1727.999922" fill-opacity="0.6392"/></g></mask><clipPath id="6be28e3d61"><path d="M 0 0 L 776.773438 0 L 776.773438 734 L 0 734 Z M 0 0 " clip-rule="nonzero"/></clipPath><mask id="08a56f281b"><g filter="url(#4fce8e182c)"><rect x="-178.2" width="1166.4" fill="#000000" y="-316.799986" height="2073.599906" fill-opacity="0.6471"/></g></mask><clipPath id="c1b4263f20"><path d="M 0 0 L 776.773438 0 L 776.773438 732 L 0 732 Z M 0 0 " clip-rule="nonzero"/></clipPath><clipPath id="a722629d44"><rect x="0" width="777" y="0" height="734"/></clipPath><clipPath id="60c388a045"><path d="M 0 45 L 660 45 L 660 619 L 0 619 Z M 0 45 " clip-rule="nonzero"/></clipPath><clipPath id="1699992001"><path d="M 112 570 L 559 570 L 559 742.527344 L 112 742.527344 Z M 112 570 " clip-rule="nonzero"/></clipPath><mask id="c1aac8af7b"><g filter="url(#4fce8e182c)"><rect x="-178.2" width="1166.4" fill="#000000" y="-316.799986" height="2073.599906" fill-opacity="0.8"/></g></mask><clipPath id="21337e4c50"><path d="M 2 2 L 446 2 L 446 172.527344 L 2 172.527344 Z M 2 2 " clip-rule="nonzero"/></clipPath><clipPath id="8f15dc5173"><rect x="0" width="447" y="0" height="173"/></clipPath><clipPath id="589857f6b5"><rect x="0" width="779" y="0" height="745"/></clipPath></defs><g mask="url(#70b425ebe4)"><g transform="matrix(1, 0, 0, 1, 0, 655)"><g clip-path="url(#f33475476a)"><g clip-path="url(#dc9eb397e8)"><g mask="url(#bc482f8e59)"><g transform="matrix(1, 0, 0, 1, 2, 11)"><g clip-path="url(#1338cbc094)"><g clip-path="url(#21b6578691)"><path fill="#e2a727" d="M 8.613281 781.894531 C 13.285156 705.445312 22.292969 612.484375 99.75 574.195312 C 183.695312 532.738281 279.523438 571.503906 366.980469 573.527344 C 408.953125 574.5 449.417969 566.109375 486.390625 546.027344 C 520.542969 527.457031 550.035156 500.949219 573.921875 470.421875 C 629.476562 399.386719 652.714844 309.917969 669.886719 223.039062 C 679.710938 173.324219 688.046875 120.921875 715.882812 77.464844 C 740.152344 39.554688 782.867188 8.816406 829.496094 11.945312 C 834.226562 12.269531 835.105469 4.125 830.335938 3.574219 C 790.632812 -1.136719 754.402344 16.347656 727.082031 44.417969 C 696.558594 75.804688 681.292969 118.160156 671.257812 159.976562 C 660.136719 206.503906 653.308594 253.890625 640.980469 300.191406 C 628.65625 346.492188 612.230469 392.085938 587.316406 433.234375 C 542.023438 508.082031 467.40625 564.527344 377.453125 565.707031 C 287.5 566.890625 194.378906 526.617188 106.578125 561.550781 C 17.0625 597.25 4.453125 697.722656 0.980469 782.160156 C 0.789062 787.042969 8.230469 786.679688 8.613281 781.894531 Z M 8.613281 781.894531 " fill-opacity="1" fill-rule="nonzero"/></g></g></g></g></g><g clip-path="url(#2967a631e7)"><path fill="#e2a727" d="M 121.152344 534.964844 C 164.878906 536.339844 196.246094 571.597656 221.523438 603.195312 C 234.746094 619.746094 247.851562 636.46875 263.628906 650.714844 C 278.195312 663.921875 294.335938 674.789062 312.050781 683.324219 C 346.125 699.570312 384.890625 704.738281 421.484375 694.324219 C 457.082031 684.199219 487.132812 660 502.433594 626.136719 C 518.019531 591.503906 518.132812 552.089844 514.128906 515.019531 C 509.835938 475.472656 500.46875 436.664062 498.0625 396.886719 C 495.621094 357.910156 499.992188 317.027344 523.820312 284.609375 C 545.207031 255.527344 578.019531 238.15625 611.40625 226.449219 C 646.113281 214.28125 682.417969 208.105469 717.730469 198.148438 C 752.433594 188.347656 787.460938 174.925781 814.628906 150.476562 C 821.0625 144.566406 826.882812 138.101562 832.085938 131.085938 C 834.089844 128.453125 830.3125 124.867188 828.269531 127.539062 C 806.179688 156.675781 772.523438 174.007812 738.640625 185.449219 C 703.863281 197.195312 667.613281 203.316406 632.394531 213.425781 C 598.53125 223.128906 564.457031 236.496094 537.804688 260.183594 C 531.054688 266.144531 524.988281 272.730469 519.601562 279.945312 C 514.214844 287.160156 509.625 294.847656 505.828125 303.011719 C 501.953125 311.757812 498.875 320.773438 496.589844 330.0625 C 494.304688 339.351562 492.851562 348.765625 492.226562 358.3125 C 489.058594 398.203125 497.300781 437.351562 504.035156 476.425781 C 510.558594 514.332031 515.691406 554.054688 508.347656 592.210938 C 506.695312 601.371094 504.121094 610.265625 500.621094 618.890625 C 497.121094 627.515625 492.769531 635.691406 487.570312 643.410156 C 482.179688 651.089844 475.957031 658.023438 468.898438 664.207031 C 461.839844 670.390625 454.148438 675.648438 445.828125 679.984375 C 411.925781 697.929688 371.839844 699.875 335.574219 688.375 C 295.984375 675.828125 264.050781 649.324219 237.988281 617.707031 C 212.347656 586.585938 187.773438 550.964844 148.167969 536.683594 C 139.375 533.542969 130.316406 531.910156 120.980469 531.78125 C 118.921875 531.78125 119.074219 534.910156 121.09375 534.964844 Z M 121.152344 534.964844 " fill-opacity="1" fill-rule="nonzero"/></g><g clip-path="url(#84fbb07b70)"><g mask="url(#f5fff2ad1b)"><g transform="matrix(1, 0, 0, 1, 220, 2)"><g clip-path="url(#51d7395f00)"><g clip-path="url(#57ca4f9940)"><path fill="#e2a727" d="M 442.730469 0.386719 C 411.632812 0.253906 381.238281 8.320312 352.925781 20.8125 C 323.929688 33.625 297.121094 50.578125 271.117188 68.636719 C 245.117188 86.695312 219.09375 105.898438 191.867188 122.753906 C 164.96875 139.417969 136.769531 153.761719 106.015625 161.578125 C 76.253906 169.207031 44.488281 170.273438 14.917969 161.175781 C 11.101562 160.015625 7.398438 158.679688 3.71875 157.210938 C 2.078125 156.5625 0.742188 158.964844 2.402344 159.652344 C 30.730469 171.53125 62 172.789062 92.070312 168.023438 C 123.089844 163.085938 152.488281 151.453125 180 136.558594 C 208.371094 121.171875 234.46875 101.910156 260.757812 83.320312 C 287.050781 64.726562 313.1875 46.726562 341.726562 32.308594 C 369.621094 18.199219 400.011719 7.519531 431.394531 5.25 C 435.210938 4.964844 439.140625 4.8125 443.015625 4.773438 C 445.855469 4.773438 445.6875 0.40625 442.863281 0.386719 Z M 442.730469 0.386719 " fill-opacity="1" fill-rule="nonzero"/></g></g></g></g></g></g></g></g><g mask="url(#dc07a2f15f)"><g transform="matrix(1, 0, 0, 1, 0, -0.000000000000101068)"><g clip-path="url(#589857f6b5)"><g clip-path="url(#6be28e3d61)"><g mask="url(#08a56f281b)"><g transform="matrix(1, 0, 0, 1, 0, -0.000000000000101068)"><g clip-path="url(#a722629d44)"><g clip-path="url(#c1b4263f20)"><path fill="#e2a727" d="M 768.722656 -47.992188 C 764.050781 28.453125 755.042969 121.414062 677.585938 159.707031 C 593.640625 201.160156 497.8125 162.394531 410.355469 160.375 C 368.382812 159.402344 327.917969 167.792969 290.945312 187.871094 C 256.792969 206.445312 227.300781 232.949219 203.414062 263.480469 C 147.859375 334.511719 124.621094 423.984375 107.449219 510.863281 C 97.625 560.574219 89.289062 612.976562 61.453125 656.433594 C 37.183594 694.34375 -5.53125 725.082031 -52.160156 721.957031 C -56.890625 721.632812 -57.769531 729.773438 -53 730.328125 C -13.296875 735.035156 22.933594 717.550781 50.253906 689.480469 C 80.777344 658.09375 96.042969 615.742188 106.078125 573.921875 C 117.199219 527.394531 124.027344 480.007812 136.355469 433.707031 C 148.679688 387.410156 165.105469 341.816406 190.019531 300.664062 C 235.3125 225.816406 309.929688 169.375 399.882812 168.191406 C 489.835938 167.007812 582.957031 207.28125 670.757812 172.347656 C 760.273438 136.652344 772.882812 36.175781 776.355469 -48.261719 C 776.546875 -53.140625 769.105469 -52.78125 768.722656 -47.992188 Z M 768.722656 -47.992188 " fill-opacity="1" fill-rule="nonzero"/></g></g></g></g></g><g clip-path="url(#60c388a045)"><path fill="#e2a727" d="M 658.183594 209.933594 C 614.457031 208.5625 583.089844 173.300781 557.8125 141.703125 C 544.589844 125.152344 531.484375 108.429688 515.707031 94.183594 C 501.140625 80.980469 485 70.109375 467.285156 61.578125 C 433.210938 45.328125 394.445312 40.164062 357.851562 50.574219 C 322.253906 60.699219 292.203125 84.898438 276.902344 118.765625 C 261.316406 153.394531 261.203125 192.808594 265.207031 229.878906 C 269.5 269.429688 278.867188 308.234375 281.273438 348.011719 C 283.714844 386.988281 279.34375 427.875 255.515625 460.289062 C 234.128906 489.371094 201.316406 506.742188 167.929688 518.453125 C 133.226562 530.617188 96.917969 536.796875 61.605469 546.75 C 26.902344 556.550781 -8.125 569.976562 -35.292969 594.421875 C -41.726562 600.335938 -47.546875 606.800781 -52.75 613.816406 C -54.753906 616.445312 -50.976562 620.03125 -48.933594 617.363281 C -26.84375 588.226562 6.8125 570.890625 40.695312 559.449219 C 75.472656 547.703125 111.722656 541.582031 146.941406 531.476562 C 180.804688 521.769531 214.878906 508.402344 241.53125 484.71875 C 248.28125 478.757812 254.347656 472.167969 259.734375 464.953125 C 265.121094 457.738281 269.710938 450.050781 273.507812 441.890625 C 277.382812 433.144531 280.460938 424.125 282.746094 414.835938 C 285.03125 405.550781 286.484375 396.132812 287.109375 386.589844 C 290.277344 346.695312 282.035156 307.546875 275.300781 268.476562 C 268.777344 230.566406 263.644531 190.84375 270.988281 152.6875 C 272.640625 143.527344 275.214844 134.632812 278.714844 126.007812 C 282.214844 117.382812 286.566406 109.210938 291.765625 101.488281 C 297.15625 93.808594 303.378906 86.878906 310.4375 80.695312 C 317.496094 74.511719 325.1875 69.25 333.507812 64.914062 C 367.410156 46.96875 407.496094 45.023438 443.761719 56.523438 C 483.351562 69.070312 515.285156 95.578125 541.347656 127.191406 C 566.988281 158.3125 591.5625 193.933594 631.167969 208.21875 C 639.960938 211.359375 649.019531 212.992188 658.355469 213.117188 C 660.414062 213.117188 660.261719 209.992188 658.242188 209.933594 Z M 658.183594 209.933594 " fill-opacity="1" fill-rule="nonzero"/></g><g clip-path="url(#1699992001)"><g mask="url(#c1aac8af7b)"><g transform="matrix(1, 0, 0, 1, 112, 570)"><g clip-path="url(#8f15dc5173)"><g clip-path="url(#21337e4c50)"><path fill="#e2a727" d="M 4.609375 172.511719 C 35.703125 172.644531 66.097656 164.578125 94.410156 152.089844 C 123.40625 139.273438 150.214844 122.324219 176.21875 104.265625 C 202.21875 86.207031 228.242188 67.003906 255.46875 50.144531 C 282.367188 33.480469 310.566406 19.140625 341.320312 11.320312 C 371.082031 3.695312 402.847656 2.625 432.417969 11.722656 C 436.234375 12.886719 439.9375 14.21875 443.617188 15.6875 C 445.257812 16.335938 446.59375 13.933594 444.933594 13.246094 C 416.605469 1.367188 385.335938 0.109375 355.265625 4.875 C 324.246094 9.816406 294.847656 21.449219 267.335938 36.339844 C 238.964844 51.730469 212.867188 70.988281 186.578125 89.582031 C 160.285156 108.171875 134.148438 126.175781 105.609375 140.589844 C 77.714844 154.703125 47.324219 165.378906 15.941406 167.648438 C 12.125 167.933594 8.195312 168.089844 4.320312 168.125 C 1.480469 168.125 1.648438 172.492188 4.472656 172.511719 Z M 4.609375 172.511719 " fill-opacity="1" fill-rule="nonzero"/></g></g></g></g></g></g></g></g></svg>